<svg width="65" height="65" viewBox="0 0 65 65" fill="none" xmlns="http://www.w3.org/2000/svg">
<path d="M15.1396 9.23547L18.9583 13.0542L10.3458 21.6667L18.9583 30.2792L15.1396 34.1251L2.70833 21.6667L15.1396 9.23547ZM30.9021 9.23547L43.3333 21.6667L30.9021 34.1251L27.0833 30.2792L35.6958 21.6667L27.0833 13.0542L30.9021 9.23547ZM59.5833 16.2501V48.7501C59.5833 51.7563 57.1729 54.1667 54.1667 54.1667H10.8333C9.39674 54.1667 8.01899 53.596 7.00317 52.5802C5.98734 51.5644 5.41666 50.1866 5.41666 48.7501V37.9167H10.8333V48.7501H54.1667V16.2501H46.1229V10.8334H54.1667C57.1729 10.8334 59.5833 13.2438 59.5833 16.2501Z" fill="black"/>
</svg>
