<svg width="65" height="65" viewBox="0 0 65 65" fill="none" xmlns="http://www.w3.org/2000/svg">
<path d="M18.0903 3.12808C18.6099 2.5057 19.3553 2.11502 20.1628 2.0419C20.9702 1.96877 21.7737 2.21917 22.3966 2.73808C25.4841 5.31371 26.6866 8.35652 26.0244 11.3546C25.4557 13.914 23.6803 15.734 22.295 16.7009C21.4257 17.4443 21.0641 18.0253 20.9138 18.3909C20.7956 18.6475 20.7643 18.9355 20.8244 19.2115C20.9503 19.7884 21.5028 20.4709 22.1366 20.8934C22.4708 21.1164 22.7579 21.403 22.9813 21.737C23.2048 22.0709 23.3603 22.4456 23.4389 22.8396C23.5176 23.2336 23.5179 23.6393 23.4397 24.0334C23.3616 24.4276 23.2066 24.8024 22.9836 25.1367C22.7606 25.4709 22.474 25.758 22.14 25.9814C21.8061 26.2049 21.4314 26.3604 21.0374 26.439C20.6434 26.5177 20.2377 26.5179 19.8436 26.4398C19.4495 26.3617 19.0746 26.2067 18.7403 25.9837C17.3347 25.0493 15.4375 23.1806 14.8525 20.5318C14.1904 17.5296 15.3888 14.4909 18.4803 11.9153L18.6022 11.8096L18.7403 11.7203C19.3741 11.2978 19.9225 10.6112 20.0525 10.0343C20.1114 9.75791 20.0786 9.46982 19.9591 9.21371C19.8047 8.83996 19.4228 8.22246 18.4803 7.43839C17.858 6.91882 17.4673 6.17343 17.3942 5.36598C17.321 4.55853 17.5714 3.75508 18.0903 3.13214M37.0622 11.2896C37.5807 11.9131 37.8304 12.7169 37.7565 13.5243C37.6826 14.3318 37.2911 15.0769 36.6682 15.5959C35.7257 16.384 35.3438 16.9975 35.1894 17.3753C35.0699 17.6314 35.0371 17.9195 35.096 18.1959C35.226 18.7728 35.7744 19.4553 36.4082 19.8778C36.7507 20.0968 37.0461 20.382 37.2771 20.7165C37.5081 21.051 37.6702 21.4283 37.7537 21.8262C37.8373 22.2241 37.8407 22.6346 37.7637 23.0338C37.6868 23.433 37.531 23.8129 37.3055 24.1512C37.0801 24.4895 36.7894 24.7795 36.4506 25.0042C36.1118 25.2289 35.7316 25.3838 35.3322 25.4599C34.9328 25.5359 34.5223 25.5316 34.1246 25.4472C33.7269 25.3627 33.35 25.1999 33.016 24.9681C31.6063 24.0337 29.7091 22.165 29.1241 19.5162C28.4619 16.514 29.6604 13.4753 32.7519 10.8996C33.3749 10.3807 34.1783 10.1303 34.9857 10.2035C35.7932 10.2766 36.5386 10.6673 37.0582 11.2896M0.840976 30.8546C1.0047 30.1924 1.38595 29.6042 1.92365 29.1844C2.46135 28.7645 3.1244 28.5373 3.8066 28.539H50.761C51.4432 28.5373 52.1062 28.7645 52.6439 29.1844C53.1816 29.6042 53.5629 30.1924 53.7266 30.8546C54.1735 32.6218 54.2832 34.8765 54.0435 37.4034H61.5307C63.2207 37.4034 64.5897 38.7765 64.5897 40.4625C64.5897 43.4687 64.4069 48.3275 61.3519 52.3981C58.3457 56.4118 53.105 58.9875 44.7241 59.2637C43.6299 60.6395 42.422 61.9924 41.1003 63.3222C40.8162 63.6066 40.4786 63.832 40.107 63.9854C39.7354 64.1388 39.3371 64.2172 38.935 64.2159H15.6407C14.8282 64.2159 14.0522 63.8909 13.4794 63.3222C7.58879 57.4315 4.0666 50.9315 2.18566 45.1546C0.341288 39.4753 3.81768e-05 34.2265 0.845038 30.8546M37.6513 58.1018C38.7942 56.8831 39.8288 55.6508 40.755 54.405C44.5453 49.3228 46.5969 44.1106 47.4947 39.8368C47.9213 37.7934 48.0716 36.0343 48.0513 34.6531H6.52441C6.49191 36.79 6.86973 39.784 7.9991 43.2656C9.851 48.8062 12.8996 53.8714 16.9285 58.1018H37.6513ZM49.1319 52.6662C53.2066 51.874 55.3069 50.2693 56.4647 48.7256C57.6022 47.2103 58.11 45.4025 58.3294 43.5256H52.8857C51.988 46.7066 50.7312 49.7736 49.1319 52.6662Z" fill="black"/>
</svg>
